<svg id="svg" version="1.1" xmlns="http://www.w3.org/2000/svg" xmlns:xlink="http://www.w3.org/1999/xlink" width="400" height="133.33333333333334" viewBox="0, 0, 400,133.33333333333334"><g id="svgg"><path id="path0" d="M334.500 1.954 C 334.271 1.996,333.108 2.278,331.917 2.580 C 330.725 2.882,329.269 3.181,328.681 3.243 C 328.093 3.305,326.743 3.579,325.681 3.851 C 324.619 4.124,322.887 4.492,321.833 4.669 C 320.779 4.847,319.360 5.147,318.681 5.338 C 318.001 5.528,316.538 5.837,315.431 6.025 C 314.323 6.213,312.854 6.542,312.167 6.756 C 311.479 6.971,310.076 7.303,309.048 7.495 C 308.020 7.687,306.858 7.957,306.465 8.096 C 306.072 8.235,304.848 8.528,303.746 8.747 C 302.644 8.967,301.086 9.336,300.285 9.568 C 299.484 9.801,298.168 10.105,297.360 10.245 C 296.552 10.385,295.265 10.688,294.500 10.917 C 293.735 11.146,292.428 11.448,291.596 11.588 C 290.100 11.840,287.969 12.428,284.083 13.662 C 282.983 14.011,281.716 14.348,281.267 14.412 C 280.818 14.476,279.734 14.748,278.859 15.018 C 277.983 15.287,276.738 15.589,276.092 15.687 C 275.000 15.854,271.360 16.856,269.691 17.450 C 268.599 17.838,267.925 18.527,267.432 19.759 C 266.041 23.233,261.451 26.555,257.292 27.097 C 256.315 27.224,255.193 27.402,254.800 27.493 C 253.243 27.852,250.519 27.708,248.972 27.185 C 247.088 26.549,246.938 26.461,245.622 25.225 C 244.256 23.943,243.919 23.898,242.035 24.743 C 239.679 25.799,235.596 27.539,234.537 27.937 C 233.962 28.154,233.191 28.484,232.823 28.672 C 232.456 28.859,231.614 29.228,230.953 29.490 C 230.291 29.753,228.850 30.357,227.750 30.832 C 225.280 31.900,223.090 32.827,221.667 33.408 C 221.071 33.652,220.021 34.105,219.333 34.416 C 218.646 34.727,217.708 35.128,217.250 35.308 C 215.751 35.897,214.099 36.611,213.250 37.036 C 212.792 37.266,212.004 37.588,211.500 37.751 C 210.996 37.915,210.096 38.292,209.500 38.590 C 208.904 38.888,208.229 39.184,208.000 39.249 C 207.515 39.385,204.850 40.540,204.000 40.982 C 202.800 41.606,202.817 41.466,202.873 50.333 C 202.934 59.960,202.757 59.314,205.558 60.114 C 207.735 60.736,208.572 62.030,209.342 65.970 C 209.912 68.883,207.740 73.019,205.262 73.739 C 203.675 74.201,203.440 75.716,204.005 81.833 C 204.094 82.796,204.166 84.903,204.167 86.515 C 204.167 93.663,204.407 94.996,205.696 95.002 C 207.460 95.009,211.537 99.021,212.276 101.476 C 212.546 102.373,212.584 107.176,212.331 108.519 C 211.928 110.662,210.478 113.066,208.287 115.223 L 206.282 117.196 206.386 119.973 C 206.442 121.500,206.603 123.500,206.743 124.417 C 206.883 125.333,207.003 126.571,207.008 127.167 C 207.038 130.204,206.607 130.091,217.224 129.859 C 222.005 129.755,231.617 129.594,238.583 129.502 C 245.550 129.409,254.775 129.259,259.083 129.168 C 263.392 129.077,269.092 128.961,271.750 128.910 C 274.408 128.859,278.571 128.712,281.000 128.583 C 283.429 128.455,290.929 128.263,297.667 128.157 C 310.967 127.949,310.937 127.951,311.622 127.048 C 312.579 125.787,313.690 124.707,314.457 124.291 C 315.957 123.478,318.603 122.513,319.842 122.327 C 320.525 122.225,321.454 122.034,321.907 121.903 C 324.542 121.143,331.592 121.234,336.368 122.091 C 339.572 122.666,340.774 123.258,343.083 125.399 C 343.874 126.132,344.258 126.363,344.917 126.499 C 346.356 126.796,393.823 126.646,394.280 126.342 C 394.879 125.945,395.000 125.419,395.004 123.200 C 395.007 122.036,395.084 120.333,395.177 119.417 C 395.269 118.500,395.452 116.587,395.584 115.167 C 395.716 113.746,395.903 112.133,395.999 111.583 C 396.096 111.033,396.175 108.678,396.176 106.350 C 396.178 101.024,396.170 100.999,394.000 99.843 C 390.483 97.969,388.676 95.187,388.877 91.955 C 389.094 88.459,391.068 85.383,393.291 85.079 C 394.966 84.849,395.711 84.593,396.054 84.130 C 396.612 83.379,396.730 78.041,396.740 53.000 L 396.750 30.083 396.253 29.186 C 394.706 26.393,387.641 21.831,378.667 17.830 C 377.613 17.360,376.113 16.689,375.333 16.339 C 374.554 15.990,373.579 15.576,373.167 15.420 C 372.754 15.264,372.342 15.076,372.250 15.001 C 372.074 14.859,370.648 14.265,365.250 12.088 C 362.646 11.037,360.456 10.150,359.250 9.656 C 358.608 9.393,357.371 8.919,356.500 8.602 C 355.629 8.285,354.204 7.749,353.333 7.413 C 349.553 5.951,347.139 5.096,345.583 4.669 C 340.633 3.308,339.439 2.935,337.917 2.275 C 336.941 1.852,335.703 1.736,334.500 1.954 M338.404 3.170 C 339.288 3.610,340.313 3.953,341.391 4.170 C 342.293 4.351,343.101 4.543,343.186 4.595 C 343.271 4.648,344.183 4.904,345.212 5.164 C 346.898 5.590,350.206 6.730,352.417 7.646 C 354.048 8.323,355.441 8.866,357.167 9.498 C 358.129 9.851,359.704 10.455,360.667 10.840 C 361.629 11.226,362.995 11.754,363.703 12.014 C 364.410 12.275,365.309 12.651,365.699 12.850 C 366.090 13.050,366.899 13.383,367.497 13.592 C 368.094 13.801,369.446 14.362,370.500 14.839 C 371.554 15.316,372.904 15.911,373.500 16.162 C 374.096 16.413,374.958 16.807,375.417 17.037 C 375.875 17.266,376.550 17.551,376.917 17.668 C 377.283 17.786,378.080 18.133,378.686 18.441 C 379.293 18.748,379.839 19.000,379.900 19.000 C 380.198 19.000,386.510 22.274,388.412 23.415 C 392.540 25.892,395.577 28.499,395.991 29.923 C 396.211 30.678,396.116 75.060,395.883 80.557 C 395.728 84.226,395.732 84.218,393.960 84.418 C 391.467 84.701,389.793 86.282,388.842 89.250 C 387.285 94.109,388.902 97.716,393.824 100.362 C 395.605 101.320,395.575 101.232,395.634 105.662 C 395.676 108.871,395.630 109.796,395.342 111.570 C 395.154 112.727,395.000 114.179,394.999 114.795 C 394.999 115.412,394.888 116.592,394.752 117.417 C 394.598 118.354,394.505 120.083,394.503 122.023 C 394.500 124.736,394.463 125.174,394.208 125.477 L 393.917 125.823 369.397 125.929 C 350.037 126.013,344.793 125.991,344.480 125.828 C 344.262 125.714,343.666 125.227,343.156 124.745 C 341.542 123.220,339.294 121.960,337.833 121.761 C 337.421 121.705,336.333 121.513,335.417 121.334 C 331.304 120.533,325.437 120.531,321.917 121.330 C 321.183 121.496,320.171 121.684,319.667 121.748 C 317.193 122.060,312.999 124.272,311.915 125.836 C 310.877 127.334,310.903 127.325,307.285 127.303 C 305.524 127.292,302.283 127.369,300.083 127.474 C 297.883 127.579,293.758 127.667,290.917 127.669 C 288.075 127.672,284.662 127.745,283.333 127.832 C 275.764 128.329,263.000 128.683,249.500 128.771 C 238.791 128.842,216.939 129.158,212.583 129.306 C 207.394 129.482,207.719 129.677,207.508 126.276 C 207.430 125.037,207.314 123.938,207.250 123.833 C 207.185 123.728,207.066 122.292,206.985 120.641 C 206.816 117.186,206.840 117.090,208.091 116.167 C 212.083 113.221,214.059 107.506,213.017 101.923 C 212.574 99.551,208.317 94.881,206.304 94.559 C 204.859 94.328,204.931 94.651,204.807 87.807 C 204.747 84.475,204.619 81.000,204.522 80.083 C 204.061 75.734,204.274 74.514,205.547 74.193 C 208.597 73.425,210.701 68.457,209.595 64.638 C 208.525 60.948,208.010 60.268,205.767 59.584 C 204.989 59.347,204.180 59.012,203.968 58.841 L 203.583 58.530 203.537 50.344 L 203.491 42.159 203.894 41.785 C 204.271 41.436,204.691 41.239,207.500 40.096 C 208.096 39.854,209.146 39.398,209.833 39.083 C 210.521 38.769,211.533 38.330,212.083 38.107 C 212.633 37.885,213.908 37.351,214.917 36.921 C 215.925 36.491,217.313 35.916,218.000 35.643 C 218.688 35.370,219.400 35.050,219.583 34.932 C 219.767 34.814,220.367 34.552,220.917 34.349 C 221.467 34.146,222.404 33.762,223.000 33.496 C 225.349 32.446,229.638 30.612,230.629 30.234 C 231.205 30.015,231.981 29.680,232.354 29.490 C 232.727 29.299,233.681 28.892,234.474 28.584 C 235.268 28.277,236.779 27.639,237.833 27.166 C 238.887 26.694,240.040 26.201,240.395 26.071 C 240.749 25.941,241.632 25.567,242.356 25.240 C 243.945 24.522,244.086 24.550,245.417 25.832 C 246.576 26.949,246.740 27.043,248.625 27.681 C 250.535 28.326,252.423 28.458,254.500 28.089 C 255.371 27.935,256.857 27.705,257.803 27.578 C 261.609 27.067,266.559 23.496,267.829 20.345 C 268.156 19.532,268.559 18.840,268.843 18.601 C 269.587 17.975,274.258 16.507,276.287 16.262 C 276.766 16.204,277.891 15.939,278.787 15.674 C 279.684 15.409,280.904 15.109,281.500 15.008 C 282.096 14.906,283.221 14.602,284.000 14.331 C 287.109 13.251,289.820 12.458,291.157 12.238 C 291.931 12.110,293.506 11.751,294.657 11.440 C 295.808 11.130,297.284 10.793,297.936 10.692 C 298.588 10.591,299.734 10.315,300.483 10.079 C 301.232 9.842,302.498 9.542,303.297 9.413 C 304.096 9.283,305.368 8.991,306.124 8.764 C 306.880 8.537,308.155 8.238,308.958 8.098 C 309.760 7.959,311.204 7.622,312.167 7.349 C 313.129 7.076,314.782 6.701,315.841 6.515 C 316.899 6.328,318.099 6.058,318.507 5.914 C 318.916 5.770,320.188 5.502,321.333 5.319 C 322.479 5.135,324.102 4.801,324.940 4.576 C 325.778 4.350,327.433 4.020,328.617 3.841 C 329.802 3.662,330.991 3.429,331.261 3.324 C 333.772 2.342,336.617 2.280,338.404 3.170 M333.710 4.081 C 332.955 4.309,331.455 4.651,330.377 4.840 C 329.299 5.028,327.779 5.365,327.000 5.588 C 326.221 5.810,324.871 6.111,324.000 6.255 C 323.129 6.399,321.775 6.702,320.990 6.928 C 320.205 7.154,318.568 7.486,317.351 7.664 C 316.134 7.843,314.451 8.175,313.611 8.402 C 312.771 8.630,311.371 8.930,310.500 9.069 C 309.629 9.209,308.354 9.515,307.667 9.750 C 306.979 9.985,305.794 10.286,305.034 10.420 C 304.274 10.553,302.924 10.887,302.034 11.161 C 301.144 11.436,299.892 11.734,299.250 11.824 C 298.608 11.914,297.346 12.214,296.446 12.491 C 295.545 12.768,294.120 13.106,293.279 13.242 C 292.438 13.378,291.188 13.682,290.500 13.917 C 289.813 14.151,288.537 14.453,287.667 14.588 C 286.796 14.722,285.512 15.015,284.813 15.240 C 284.115 15.465,282.864 15.767,282.033 15.911 C 281.203 16.055,280.044 16.353,279.458 16.574 C 278.873 16.794,277.911 17.059,277.322 17.162 C 276.732 17.265,275.462 17.604,274.500 17.916 C 273.537 18.228,272.321 18.559,271.796 18.652 C 270.068 18.957,269.350 19.696,267.574 22.993 C 266.654 24.701,265.538 25.628,262.667 27.071 C 258.930 28.949,258.847 28.975,255.691 29.254 C 250.299 29.729,248.289 29.333,244.917 27.128 C 243.830 26.417,243.018 26.416,241.333 27.121 C 240.646 27.409,239.258 27.992,238.250 28.418 C 237.242 28.843,235.817 29.441,235.083 29.746 C 234.350 30.051,232.925 30.651,231.917 31.080 C 227.633 32.900,226.838 33.232,225.333 33.826 C 224.463 34.171,223.412 34.610,223.000 34.804 C 222.588 34.997,221.800 35.338,221.250 35.561 C 220.700 35.784,219.762 36.164,219.167 36.406 C 218.571 36.648,217.596 37.065,217.000 37.333 C 216.404 37.601,215.429 38.018,214.833 38.259 C 214.237 38.501,213.112 38.956,212.333 39.273 C 205.742 41.946,205.850 42.439,213.008 42.359 C 219.596 42.285,219.991 42.713,213.750 43.163 C 209.133 43.495,207.167 43.369,207.167 42.740 C 207.167 42.052,205.635 42.074,204.979 42.772 L 204.583 43.193 204.536 50.064 L 204.490 56.935 204.876 57.509 C 205.324 58.177,206.056 58.477,207.265 58.491 C 211.285 58.535,215.495 62.980,215.498 67.186 C 215.503 72.558,213.334 74.994,208.118 75.472 C 206.752 75.598,206.416 75.687,206.055 76.019 L 205.625 76.417 205.737 82.333 C 205.945 93.314,205.900 93.153,208.821 93.326 C 210.559 93.428,211.833 93.783,214.748 94.978 C 220.177 97.202,222.206 108.515,218.150 113.948 C 216.832 115.714,215.485 116.410,211.625 117.323 C 207.753 118.238,207.939 117.801,208.487 124.683 C 208.810 128.741,207.607 128.424,221.744 128.179 C 228.072 128.070,235.562 127.966,238.389 127.948 L 243.528 127.917 243.996 127.392 C 244.275 127.080,244.540 126.518,244.649 126.009 C 245.112 123.851,246.766 122.522,249.862 121.821 C 253.963 120.893,256.916 122.109,258.500 125.379 C 259.393 127.223,257.709 127.081,275.656 126.833 C 284.233 126.715,295.150 126.569,299.917 126.509 C 309.275 126.392,309.105 126.410,309.960 125.436 C 310.495 124.827,310.547 124.651,310.820 122.527 C 311.107 120.287,312.437 118.042,314.348 116.572 C 315.266 115.866,318.830 114.000,319.261 114.000 C 319.378 114.000,320.322 113.734,321.360 113.408 C 325.242 112.191,331.544 112.235,336.000 113.510 C 342.078 115.249,345.034 118.187,345.906 123.356 C 346.202 125.110,344.505 124.997,370.471 124.999 L 392.359 125.000 392.834 124.525 C 393.411 123.948,393.432 123.818,393.657 119.399 C 393.755 117.464,393.942 115.027,394.072 113.982 C 394.720 108.769,394.461 102.988,393.533 101.949 C 393.386 101.783,392.661 101.336,391.924 100.954 C 389.063 99.473,388.034 97.766,386.966 92.726 C 386.765 91.780,387.538 87.962,388.202 86.617 C 388.957 85.089,390.560 83.861,392.403 83.400 C 393.128 83.219,393.746 82.942,394.070 82.653 L 394.583 82.194 394.704 72.887 C 394.771 67.768,394.771 56.041,394.704 46.827 L 394.583 30.075 394.217 29.609 C 393.527 28.733,390.686 26.779,386.250 24.129 C 379.330 19.997,375.048 17.842,371.583 16.750 C 370.208 16.317,367.958 15.433,366.583 14.786 C 361.946 12.606,360.692 12.108,352.250 9.092 C 351.058 8.666,349.521 8.131,348.833 7.904 C 348.146 7.676,346.833 7.197,345.917 6.839 C 337.989 3.743,336.176 3.333,333.710 4.081 M335.382 10.337 C 338.692 10.816,340.056 13.263,338.336 15.637 C 337.273 17.105,336.370 17.401,332.417 17.583 L 330.083 17.690 328.333 18.494 C 326.008 19.563,325.196 19.821,323.505 20.029 C 321.483 20.278,316.620 20.118,315.687 19.771 C 314.334 19.268,313.832 19.381,312.640 20.458 C 310.601 22.302,309.273 22.737,303.883 23.332 C 298.364 23.941,295.964 23.647,292.897 21.989 C 290.170 20.515,289.830 19.627,291.268 17.742 C 292.061 16.702,293.350 16.145,297.500 15.047 C 299.244 14.586,305.773 14.645,307.568 15.138 C 309.803 15.752,309.910 15.723,311.388 14.099 C 313.749 11.505,316.725 10.863,323.076 11.578 C 325.757 11.880,326.167 12.002,326.167 12.500 C 326.167 13.178,325.085 13.345,323.500 12.912 C 319.806 11.902,315.149 13.672,316.416 15.605 C 317.707 17.576,322.907 17.594,325.836 15.638 C 326.938 14.902,327.106 14.883,328.420 15.334 C 331.827 16.507,336.000 15.446,336.000 13.407 C 336.000 12.411,335.107 11.936,331.588 11.063 C 330.035 10.677,330.187 10.624,334.083 10.192 C 334.175 10.182,334.760 10.247,335.382 10.337 M363.012 16.361 C 365.754 17.578,365.401 18.394,362.083 18.508 C 358.150 18.642,357.047 19.244,357.122 21.214 C 357.197 23.184,355.024 22.826,352.958 20.528 C 351.721 19.151,353.104 16.971,355.721 16.175 C 356.613 15.904,362.310 16.049,363.012 16.361 M299.569 16.804 C 296.135 17.991,295.417 20.040,298.039 21.168 C 299.511 21.801,306.025 21.905,307.956 21.327 C 309.632 20.825,310.337 19.137,309.301 18.101 C 307.967 16.767,301.984 15.969,299.569 16.804 M313.083 29.768 C 316.598 30.358,319.512 31.608,321.439 33.353 C 322.603 34.408,323.206 34.560,325.350 34.340 C 326.277 34.244,328.396 34.165,330.059 34.164 C 333.835 34.160,343.568 33.734,345.104 33.506 C 348.196 33.045,351.840 32.808,358.000 32.666 C 366.520 32.471,368.287 32.383,371.583 31.990 C 376.581 31.393,388.833 31.046,388.833 31.500 C 388.833 31.592,388.740 31.668,388.625 31.669 C 388.510 31.670,386.992 31.824,385.250 32.012 C 382.936 32.261,380.535 32.373,376.333 32.429 C 373.171 32.470,369.721 32.580,368.667 32.671 C 367.613 32.763,364.613 33.031,362.000 33.267 C 358.511 33.582,355.436 33.734,350.417 33.839 C 343.963 33.973,340.987 34.127,337.679 34.497 C 333.758 34.935,332.230 35.037,328.055 35.139 L 323.526 35.250 323.083 35.666 C 322.840 35.895,322.334 36.673,321.958 37.394 C 318.687 43.681,309.172 46.859,300.679 44.499 C 295.198 42.976,293.795 42.069,292.769 39.382 C 291.964 37.277,292.185 36.501,294.179 34.424 C 296.830 31.662,300.034 30.274,304.944 29.760 C 309.309 29.303,310.319 29.304,313.083 29.768 M315.330 31.921 C 315.214 32.060,315.017 32.815,314.891 33.597 C 314.263 37.524,311.664 39.207,305.542 39.650 C 302.693 39.857,298.388 39.544,296.291 38.978 C 293.088 38.114,294.355 40.679,298.087 42.616 C 302.342 44.823,310.082 44.773,314.088 42.512 C 321.063 38.575,322.640 34.593,318.085 32.422 C 316.426 31.631,315.683 31.496,315.330 31.921 M249.604 37.645 C 250.899 38.016,252.491 38.598,253.141 38.938 L 254.324 39.556 259.287 39.561 C 263.845 39.566,264.604 39.523,268.583 39.041 C 278.188 37.877,290.792 37.430,289.938 38.284 C 289.495 38.727,282.480 39.190,271.417 39.505 C 266.893 39.634,264.440 39.778,262.833 40.007 C 261.596 40.184,259.588 40.396,258.372 40.477 C 255.879 40.645,255.363 40.860,254.304 42.178 C 253.606 43.047,252.614 43.635,251.612 43.772 C 250.681 43.900,250.688 43.943,251.417 42.617 C 251.775 41.964,252.000 41.327,252.000 40.962 C 252.000 38.410,244.853 36.931,241.660 38.823 C 238.575 40.650,238.520 41.928,241.443 43.776 C 244.705 45.838,236.921 44.861,232.762 42.687 L 231.607 42.083 227.928 42.000 L 224.250 41.917 227.417 41.533 C 231.235 41.069,231.465 41.003,232.548 40.041 C 234.283 38.500,236.394 37.589,239.167 37.184 C 239.854 37.083,240.604 36.968,240.833 36.929 C 242.686 36.606,247.293 36.983,249.604 37.645 M383.534 37.979 C 384.623 38.406,386.023 39.585,386.335 40.338 C 386.659 41.119,386.428 41.229,384.945 41.004 C 380.190 40.284,376.915 44.493,378.958 48.698 C 379.784 50.396,379.643 50.793,378.337 50.449 C 375.001 49.571,372.876 44.429,374.579 41.356 C 376.379 38.105,380.191 36.668,383.534 37.979 M322.471 48.594 C 325.419 49.580,328.446 52.647,328.297 54.499 C 328.230 55.322,327.946 55.299,326.434 54.344 C 324.257 52.970,322.057 52.789,319.939 53.810 C 318.403 54.551,318.084 54.505,315.667 53.205 C 313.108 51.828,312.951 51.511,314.256 50.363 C 316.490 48.397,319.767 47.691,322.471 48.594 M268.759 50.423 C 271.849 50.962,274.377 53.374,274.632 56.028 C 274.770 57.467,274.268 57.675,273.112 56.657 C 270.225 54.116,267.249 54.205,264.581 56.913 C 263.278 58.235,262.988 58.276,261.879 57.291 C 261.440 56.901,260.594 56.214,259.999 55.765 C 257.932 54.205,257.965 53.604,260.211 51.905 C 262.446 50.214,265.011 49.769,268.759 50.423 M309.250 51.069 C 312.151 51.749,318.577 55.071,320.683 56.979 C 329.386 64.868,331.950 82.017,326.054 92.911 C 321.722 100.915,318.736 103.604,311.508 106.007 C 303.538 108.658,296.148 107.510,288.134 102.376 C 279.469 96.825,275.394 84.575,277.920 71.671 C 280.043 60.831,286.831 53.483,296.947 51.075 C 299.978 50.354,306.188 50.351,309.250 51.069 M362.778 51.154 C 370.384 52.565,375.416 56.767,377.160 63.163 C 378.079 66.534,377.711 67.047,374.167 67.333 C 371.099 67.581,371.197 67.648,370.260 64.667 C 368.808 60.047,365.785 57.646,360.599 56.993 C 350.925 55.776,343.884 59.981,345.170 66.208 C 346.021 70.331,348.168 71.600,358.649 74.177 C 364.780 75.685,365.805 75.978,366.945 76.554 C 367.388 76.777,368.350 77.123,369.083 77.323 C 379.623 80.196,382.897 94.089,374.750 101.366 C 369.796 105.790,365.898 107.236,358.917 107.239 C 345.930 107.246,337.938 101.543,336.314 91.112 C 335.988 89.015,336.306 88.752,339.500 88.475 C 342.670 88.200,342.731 88.237,343.423 90.823 C 344.758 95.814,347.987 98.787,353.500 100.103 C 360.922 101.874,368.349 99.995,371.176 95.630 C 373.129 92.615,372.608 88.484,369.976 86.101 C 368.422 84.695,364.039 82.644,361.917 82.329 C 359.897 82.030,352.739 80.246,350.270 79.426 C 344.004 77.345,339.974 73.547,338.851 68.667 C 336.792 59.717,342.527 52.568,353.009 51.018 C 353.691 50.917,354.438 50.802,354.667 50.762 C 355.761 50.571,361.003 50.824,362.778 51.154 M250.819 52.395 C 255.586 53.217,257.691 54.289,261.990 58.088 C 273.126 67.925,271.763 94.439,259.708 102.488 C 254.011 106.291,252.650 106.540,237.062 106.623 L 225.540 106.685 225.062 106.274 L 224.583 105.862 224.583 79.333 L 224.583 52.804 225.065 52.391 L 225.546 51.977 237.398 52.050 C 247.341 52.112,249.503 52.167,250.819 52.395 M301.000 56.837 C 290.625 58.277,284.745 65.770,284.392 78.000 L 284.298 81.250 284.907 84.244 C 286.156 90.383,287.344 92.759,290.922 96.272 C 295.789 101.050,300.162 102.181,307.545 100.573 C 313.796 99.212,319.972 93.121,320.995 87.306 C 323.559 72.738,319.096 60.722,310.083 57.931 C 306.493 56.820,303.618 56.473,301.000 56.837 M362.500 57.841 C 366.181 58.794,368.147 60.921,369.586 65.511 C 370.244 67.607,370.080 74.841,369.353 75.833 C 368.555 76.922,367.646 76.179,367.986 74.716 C 368.633 71.927,368.016 68.834,366.166 65.601 C 364.421 62.551,360.920 60.311,357.409 59.996 C 353.259 59.625,352.071 59.996,347.951 62.949 C 345.660 64.591,345.027 64.106,346.401 61.761 C 348.562 58.074,356.207 56.213,362.500 57.841 M40.044 58.686 C 38.843 59.033,38.920 57.654,38.889 79.417 C 38.858 101.552,38.848 101.207,39.524 101.883 L 40.002 102.361 41.997 102.306 C 43.811 102.255,44.026 102.216,44.371 101.870 L 44.750 101.491 44.833 90.508 C 44.930 77.761,44.687 79.163,47.044 77.741 C 51.666 74.953,56.549 74.964,58.326 77.766 C 59.344 79.371,59.388 79.876,59.491 91.083 C 59.591 102.131,59.558 101.777,60.525 102.177 C 61.384 102.533,64.593 102.315,65.037 101.870 L 65.417 101.491 65.417 90.537 C 65.417 78.026,65.413 77.988,64.066 75.199 C 61.271 69.413,53.769 68.204,46.826 72.421 C 44.838 73.629,44.871 73.739,44.850 65.897 C 44.831 58.926,44.852 59.039,43.534 58.673 C 42.784 58.465,40.784 58.472,40.044 58.686 M232.547 58.746 C 232.226 58.886,231.979 59.133,231.929 59.365 C 231.854 59.713,231.624 72.335,231.648 74.750 C 231.665 76.438,231.637 90.132,231.612 92.167 C 231.576 95.087,231.810 99.133,232.034 99.492 C 232.430 100.126,232.851 100.167,239.050 100.164 C 253.049 100.158,255.788 99.135,259.252 92.623 C 262.605 86.321,262.983 73.634,260.009 67.226 C 258.036 62.973,254.408 59.883,250.456 59.089 C 247.402 58.476,233.769 58.215,232.547 58.746 M43.655 59.244 C 44.392 59.625,44.400 59.701,44.494 66.715 C 44.600 74.556,44.522 74.321,46.593 73.067 C 54.767 68.121,62.419 70.060,64.541 77.617 C 64.961 79.111,65.230 100.592,64.838 101.324 C 64.395 102.152,61.087 102.246,60.403 101.449 L 60.033 101.019 59.954 91.051 C 59.869 80.406,59.808 79.584,58.979 77.959 C 57.148 74.370,51.408 74.280,46.167 77.758 C 44.442 78.903,44.595 77.772,44.500 90.083 C 44.436 98.396,44.368 101.003,44.205 101.286 C 43.740 102.100,40.528 102.269,39.779 101.520 L 39.417 101.157 39.376 80.704 C 39.333 58.781,39.301 59.654,40.170 59.214 C 40.751 58.920,43.067 58.940,43.655 59.244 M313.413 60.079 C 315.050 61.254,316.916 64.110,316.594 64.949 C 316.213 65.941,312.678 63.338,311.655 61.310 C 310.554 59.129,311.332 58.585,313.413 60.079 M210.894 62.749 C 210.841 62.886,210.890 63.617,211.003 64.374 C 211.400 67.053,211.184 69.346,210.370 71.099 C 209.356 73.283,209.495 73.665,211.046 72.955 C 213.495 71.834,214.629 69.278,214.007 66.282 C 213.617 64.404,211.278 61.749,210.894 62.749 M338.409 69.292 C 339.426 72.252,340.415 73.737,342.883 76.015 C 343.705 76.774,344.574 77.807,345.248 78.830 C 347.079 81.608,348.418 82.644,351.803 83.903 C 354.722 84.989,355.697 84.980,359.250 83.833 C 362.090 82.917,362.609 82.848,363.184 83.314 C 364.905 84.708,357.974 87.322,353.101 87.116 C 346.779 86.850,341.963 84.119,339.153 79.207 C 337.654 76.587,336.632 71.846,336.990 69.167 C 337.289 66.916,337.602 66.944,338.409 69.292 M86.750 69.932 C 82.623 70.485,80.588 71.278,78.120 73.291 C 71.919 78.350,70.666 90.153,75.593 97.099 C 79.552 102.681,88.201 104.540,97.083 101.717 C 100.496 100.633,100.751 100.334,100.748 97.417 C 100.745 94.338,100.451 94.184,97.369 95.644 C 88.936 99.638,81.304 97.718,79.235 91.081 C 78.681 89.305,78.719 88.024,79.333 87.715 C 79.654 87.553,82.049 87.504,89.767 87.502 C 102.118 87.499,101.333 87.694,101.333 84.629 C 101.333 76.685,97.813 71.547,91.500 70.275 C 90.172 70.007,87.583 69.821,86.750 69.932 M120.667 69.942 C 111.121 70.852,105.775 77.905,106.531 88.593 C 107.354 100.225,117.844 105.871,130.917 101.717 C 134.331 100.632,134.586 100.333,134.578 97.417 C 134.569 94.341,134.281 94.188,131.211 95.632 C 121.780 100.066,112.667 96.713,112.667 88.808 C 112.667 87.421,112.006 87.500,123.542 87.500 C 136.356 87.500,135.302 87.865,135.105 83.496 C 134.738 75.372,130.856 70.826,123.583 70.005 C 122.105 69.839,121.820 69.832,120.667 69.942 M183.833 69.937 C 177.780 70.572,173.595 73.362,171.311 78.284 C 169.010 83.243,169.094 90.645,171.504 95.318 C 175.091 102.274,184.218 104.860,194.083 101.716 C 197.536 100.615,197.667 100.458,197.667 97.425 C 197.667 94.320,197.390 94.139,194.714 95.490 C 186.364 99.705,178.357 97.804,176.240 91.104 C 175.024 87.254,174.312 87.500,186.690 87.500 C 199.512 87.500,198.459 87.861,198.285 83.530 C 197.922 74.515,192.129 69.066,183.833 69.937 M289.970 70.539 C 292.137 71.615,293.685 73.706,293.729 75.618 C 293.763 77.089,293.223 77.260,291.712 76.260 C 288.917 74.411,285.819 78.123,287.767 80.989 C 288.786 82.488,286.896 83.464,285.461 82.180 L 284.917 81.693 284.926 78.555 C 284.952 70.466,286.111 68.623,289.970 70.539 M20.500 70.175 C 10.542 71.405,5.026 81.109,7.931 92.290 C 10.295 101.389,19.760 105.435,29.833 101.653 C 32.744 100.560,32.999 100.223,33.000 97.469 C 33.000 94.782,32.540 94.091,31.218 94.792 C 26.524 97.285,25.374 97.667,22.561 97.667 C 17.129 97.667,14.087 94.540,13.489 88.343 C 12.402 77.089,20.227 72.017,29.988 77.650 C 32.545 79.126,33.000 78.821,33.000 75.633 C 32.999 73.305,32.791 72.789,31.583 72.126 C 28.846 70.624,23.904 69.754,20.500 70.175 M150.250 70.241 C 142.875 71.394,138.723 76.981,140.874 82.858 C 142.161 86.375,144.442 87.699,152.000 89.316 C 157.779 90.552,158.833 91.258,158.833 93.891 C 158.833 98.637,149.735 99.324,142.750 95.105 C 140.762 93.904,140.271 94.313,140.202 97.225 C 140.121 100.574,140.635 101.058,145.667 102.370 C 154.576 104.693,163.142 101.499,164.745 95.257 C 166.296 89.218,163.039 85.659,154.301 83.844 C 147.992 82.533,146.710 81.793,146.534 79.363 C 146.211 74.896,153.710 73.790,160.715 77.272 C 163.357 78.585,163.833 78.274,163.833 75.242 C 163.833 72.884,163.635 72.457,162.240 71.804 C 159.191 70.377,153.841 69.680,150.250 70.241 M91.918 70.834 C 96.358 71.969,99.247 74.968,100.342 79.580 C 100.719 81.166,100.995 84.729,100.819 85.725 C 100.594 86.996,101.372 86.907,89.674 87.000 L 79.193 87.083 78.763 87.487 C 78.008 88.197,78.306 90.482,79.462 92.833 C 82.205 98.417,90.065 99.817,97.555 96.055 C 99.871 94.893,100.326 95.153,100.331 97.641 C 100.335 99.980,99.952 100.379,96.750 101.382 C 81.640 106.112,70.758 97.311,73.433 82.521 C 75.020 73.746,83.166 68.595,91.918 70.834 M125.751 70.830 C 131.408 72.260,134.375 76.507,134.619 83.528 L 134.710 86.139 134.279 86.569 L 133.848 87.000 123.699 87.000 C 110.983 87.000,111.560 86.821,112.426 90.497 C 114.172 97.904,122.770 100.389,131.486 96.007 C 133.643 94.922,134.160 95.198,134.164 97.438 C 134.169 99.805,133.891 100.206,131.697 101.000 C 116.226 106.603,104.408 97.617,107.274 82.432 C 108.922 73.699,117.011 68.620,125.751 70.830 M188.918 70.834 C 194.407 72.237,197.326 76.230,197.829 83.022 C 198.154 87.401,199.261 87.000,186.836 87.000 C 174.858 87.000,175.333 86.927,175.333 88.757 C 175.333 96.896,184.969 100.658,194.306 96.162 C 197.010 94.860,197.334 95.028,197.333 97.733 C 197.333 100.166,196.670 100.682,192.045 101.850 C 180.280 104.821,171.266 99.498,170.147 88.917 C 168.847 76.629,177.812 67.993,188.918 70.834 M27.000 70.992 C 31.313 72.025,32.401 72.762,32.548 74.750 C 32.783 77.910,32.271 78.510,30.351 77.329 C 20.169 71.063,11.372 77.298,13.159 89.514 C 14.358 97.715,21.455 100.514,29.786 96.074 C 32.364 94.700,32.561 94.814,32.526 97.657 C 32.496 100.123,32.267 100.366,28.917 101.488 C 16.112 105.773,6.342 97.727,7.820 84.116 C 8.893 74.244,17.107 68.623,27.000 70.992 M156.667 70.746 C 160.061 71.270,162.757 72.252,163.147 73.107 C 163.250 73.332,163.333 74.294,163.333 75.246 C 163.333 77.848,163.141 77.944,160.480 76.676 C 153.535 73.368,145.971 74.626,146.009 79.083 C 146.034 81.969,147.757 83.012,154.833 84.422 C 161.846 85.819,164.538 88.202,164.525 93.000 C 164.503 100.933,154.688 104.930,143.917 101.392 C 140.877 100.394,140.667 100.145,140.667 97.561 C 140.667 94.852,141.010 94.554,142.847 95.667 C 149.860 99.915,159.307 98.923,159.330 93.936 C 159.343 91.028,158.018 90.117,151.917 88.841 C 143.275 87.033,140.604 84.767,140.871 79.474 C 141.194 73.080,147.873 69.390,156.667 70.746 M239.037 73.998 C 246.006 76.150,248.187 86.389,242.758 91.467 C 239.841 94.196,233.551 95.291,232.326 93.283 C 231.571 92.045,231.973 91.061,233.598 90.169 C 239.588 86.882,239.875 79.503,234.146 76.082 C 232.801 75.279,232.500 75.019,232.500 74.661 C 232.500 73.592,236.430 73.193,239.037 73.998 M86.083 74.605 C 82.286 75.194,78.883 78.336,78.550 81.559 C 78.378 83.229,78.048 83.167,87.031 83.167 C 96.516 83.167,96.265 83.250,95.607 80.339 C 94.673 76.204,90.801 73.873,86.083 74.605 M119.917 74.605 C 116.129 75.193,112.715 78.353,112.382 81.580 C 112.212 83.225,111.898 83.167,120.848 83.167 C 130.196 83.167,129.970 83.232,129.509 80.650 C 128.745 76.377,124.744 73.856,119.917 74.605 M183.083 74.616 C 179.390 75.106,175.883 78.339,175.550 81.559 C 175.378 83.229,175.050 83.167,184.015 83.167 C 193.096 83.167,193.062 83.175,192.776 81.087 C 192.146 76.489,188.303 73.924,183.083 74.616 M91.047 75.489 C 93.445 76.416,95.041 78.559,95.288 81.184 C 95.434 82.743,95.857 82.667,87.058 82.667 C 78.110 82.667,78.381 82.750,79.346 80.301 C 81.025 76.042,86.574 73.760,91.047 75.489 M124.880 75.489 C 127.726 76.589,130.248 80.919,128.854 82.312 C 128.375 82.792,113.570 82.879,113.095 82.405 C 112.007 81.316,114.376 77.412,116.962 76.034 C 119.051 74.920,122.751 74.666,124.880 75.489 M188.047 75.489 C 190.893 76.589,193.415 80.919,192.021 82.312 C 191.619 82.715,177.050 82.883,176.322 82.494 C 174.847 81.705,177.591 77.299,180.460 75.850 C 182.315 74.914,186.093 74.734,188.047 75.489 M318.307 85.682 C 320.802 86.232,320.964 87.127,319.230 90.781 C 318.338 92.660,317.954 92.861,316.145 92.398 C 314.899 92.079,313.796 92.213,311.000 93.023 C 308.008 93.889,306.584 94.978,304.978 97.625 C 303.625 99.856,303.073 99.800,303.097 97.432 C 303.176 89.699,310.578 83.980,318.307 85.682 M327.563 93.897 C 328.185 95.208,328.358 96.430,328.303 99.132 L 328.250 101.750 327.540 103.417 C 326.439 106.002,324.512 108.262,323.125 108.593 C 322.500 108.743,322.523 108.462,323.271 106.777 C 324.373 104.296,324.646 101.938,324.083 99.777 C 323.673 98.200,323.729 97.961,325.028 95.767 C 326.706 92.935,327.002 92.716,327.563 93.897 M212.208 95.936 C 211.832 96.102,211.989 96.775,212.736 98.190 C 214.455 101.446,214.725 107.639,213.268 110.432 C 211.155 114.483,210.943 115.667,212.331 115.667 C 215.378 115.667,218.639 111.370,219.098 106.750 C 219.564 102.057,214.908 94.748,212.208 95.936 M255.417 96.660 C 255.417 96.957,254.401 97.667,253.975 97.667 C 253.545 97.667,253.590 97.298,254.085 96.763 C 254.542 96.271,255.417 96.203,255.417 96.660 M298.073 98.277 C 299.892 98.734,301.263 99.733,300.814 100.274 C 300.155 101.068,294.917 99.494,294.917 98.502 C 294.917 97.798,295.889 97.728,298.073 98.277 M377.292 102.233 C 378.952 103.732,379.444 105.776,378.557 107.486 C 377.550 109.427,377.054 109.738,374.860 109.801 C 372.480 109.868,371.834 109.568,371.042 108.027 C 370.020 106.037,370.242 105.382,372.464 103.828 C 373.263 103.269,374.241 102.554,374.638 102.239 C 375.631 101.451,376.425 101.449,377.292 102.233 M288.841 103.434 C 289.524 103.857,290.875 104.600,291.842 105.086 C 293.943 106.142,293.977 106.179,294.260 107.664 C 294.970 111.389,297.482 113.997,300.363 113.999 C 302.035 114.000,302.358 114.414,301.474 115.421 C 300.053 117.040,294.990 118.185,292.658 117.416 C 287.614 115.751,285.666 113.010,285.671 107.583 C 285.675 103.018,286.474 101.972,288.841 103.434 M369.935 113.530 C 373.389 115.325,373.209 119.408,369.596 121.236 C 368.024 122.032,365.336 121.166,364.396 119.563 C 362.266 115.929,366.235 111.607,369.935 113.530 M325.167 114.288 C 320.137 114.875,316.002 116.871,314.182 119.592 C 312.574 121.996,313.111 122.647,315.828 121.585 C 316.672 121.256,317.562 120.952,317.806 120.911 C 318.050 120.869,319.450 120.594,320.917 120.298 C 326.487 119.177,336.355 119.744,340.705 121.435 C 345.270 123.209,344.414 120.341,339.362 116.936 L 337.218 115.491 335.400 115.176 C 334.401 115.003,332.695 114.705,331.608 114.514 C 329.748 114.187,326.892 114.087,325.167 114.288 " stroke="none" fill="#f9b93d" fill-rule="evenodd"></path><path id="path1" d="M333.167 2.832 C 332.387 2.997,331.530 3.219,331.261 3.324 C 330.991 3.429,329.802 3.662,328.617 3.841 C 327.433 4.020,325.778 4.350,324.940 4.576 C 324.102 4.801,322.479 5.135,321.333 5.319 C 320.188 5.502,318.916 5.770,318.507 5.914 C 318.099 6.058,316.899 6.328,315.841 6.515 C 314.782 6.701,313.129 7.076,312.167 7.349 C 311.204 7.622,309.760 7.959,308.958 8.098 C 308.155 8.238,306.880 8.537,306.124 8.764 C 305.368 8.991,304.096 9.283,303.297 9.413 C 302.498 9.542,301.232 9.842,300.483 10.079 C 299.734 10.315,298.588 10.591,297.936 10.692 C 297.284 10.793,295.808 11.130,294.657 11.440 C 293.506 11.751,291.931 12.110,291.157 12.238 C 289.820 12.458,287.109 13.251,284.000 14.331 C 283.221 14.602,282.096 14.906,281.500 15.008 C 280.904 15.109,279.684 15.409,278.787 15.674 C 277.891 15.939,276.766 16.204,276.287 16.262 C 274.258 16.507,269.587 17.975,268.843 18.601 C 268.559 18.840,268.156 19.532,267.829 20.345 C 266.559 23.496,261.609 27.067,257.803 27.578 C 256.857 27.705,255.371 27.935,254.500 28.089 C 252.423 28.458,250.535 28.326,248.625 27.681 C 246.740 27.043,246.576 26.949,245.417 25.832 C 244.086 24.550,243.945 24.522,242.356 25.240 C 241.632 25.567,240.749 25.941,240.395 26.071 C 240.040 26.201,238.887 26.694,237.833 27.166 C 236.779 27.639,235.268 28.277,234.474 28.584 C 233.681 28.892,232.727 29.299,232.354 29.490 C 231.981 29.680,231.205 30.015,230.629 30.234 C 229.638 30.612,225.349 32.446,223.000 33.496 C 222.404 33.762,221.467 34.146,220.917 34.349 C 220.367 34.552,219.767 34.814,219.583 34.932 C 219.400 35.050,218.688 35.370,218.000 35.643 C 217.313 35.916,215.925 36.491,214.917 36.921 C 213.908 37.351,212.633 37.885,212.083 38.107 C 211.533 38.330,210.521 38.769,209.833 39.083 C 209.146 39.398,208.096 39.854,207.500 40.096 C 204.691 41.239,204.271 41.436,203.894 41.785 L 203.491 42.159 203.537 50.344 L 203.583 58.530 203.968 58.841 C 204.180 59.012,204.989 59.347,205.767 59.584 C 208.010 60.268,208.525 60.948,209.595 64.638 C 210.701 68.457,208.597 73.425,205.547 74.193 C 204.274 74.514,204.061 75.734,204.522 80.083 C 204.619 81.000,204.747 84.475,204.807 87.807 C 204.931 94.651,204.859 94.328,206.304 94.559 C 208.317 94.881,212.574 99.551,213.017 101.923 C 214.059 107.506,212.083 113.221,208.091 116.167 C 206.840 117.090,206.816 117.186,206.985 120.641 C 207.066 122.292,207.185 123.728,207.250 123.833 C 207.314 123.938,207.430 125.037,207.508 126.276 C 207.719 129.677,207.394 129.482,212.583 129.306 C 216.939 129.158,238.791 128.842,249.500 128.771 C 263.000 128.683,275.764 128.329,283.333 127.832 C 284.662 127.745,288.075 127.672,290.917 127.669 C 293.758 127.667,297.883 127.579,300.083 127.474 C 302.283 127.369,305.524 127.292,307.285 127.303 C 310.903 127.325,310.877 127.334,311.915 125.836 C 312.999 124.272,317.193 122.060,319.667 121.748 C 320.171 121.684,321.183 121.496,321.917 121.330 C 325.437 120.531,331.304 120.533,335.417 121.334 C 336.333 121.513,337.421 121.705,337.833 121.761 C 339.294 121.960,341.542 123.220,343.156 124.745 C 343.666 125.227,344.262 125.714,344.480 125.828 C 344.793 125.991,350.037 126.013,369.397 125.929 L 393.917 125.823 394.208 125.477 C 394.463 125.174,394.500 124.736,394.503 122.023 C 394.505 120.083,394.598 118.354,394.752 117.417 C 394.888 116.592,394.999 115.412,394.999 114.795 C 395.000 114.179,395.154 112.727,395.342 111.570 C 395.630 109.796,395.676 108.871,395.634 105.662 C 395.575 101.232,395.605 101.320,393.824 100.362 C 388.902 97.716,387.285 94.109,388.842 89.250 C 389.793 86.282,391.467 84.701,393.960 84.418 C 395.732 84.218,395.728 84.226,395.883 80.557 C 396.116 75.060,396.211 30.678,395.991 29.923 C 395.577 28.499,392.540 25.892,388.412 23.415 C 386.510 22.274,380.198 19.000,379.900 19.000 C 379.839 19.000,379.293 18.748,378.686 18.441 C 378.080 18.133,377.283 17.786,376.917 17.668 C 376.550 17.551,375.875 17.266,375.417 17.037 C 374.958 16.807,374.096 16.413,373.500 16.162 C 372.904 15.911,371.554 15.316,370.500 14.839 C 369.446 14.362,368.094 13.801,367.497 13.592 C 366.899 13.383,366.090 13.050,365.699 12.850 C 365.309 12.651,364.410 12.275,363.703 12.014 C 362.995 11.754,361.629 11.226,360.667 10.840 C 359.704 10.455,358.129 9.851,357.167 9.498 C 355.441 8.866,354.048 8.323,352.417 7.646 C 350.206 6.730,346.898 5.590,345.212 5.164 C 344.183 4.904,343.271 4.648,343.186 4.595 C 343.101 4.543,342.293 4.351,341.391 4.170 C 340.313 3.953,339.288 3.610,338.404 3.170 C 336.824 2.384,335.643 2.307,333.167 2.832 M338.833 4.322 C 340.631 4.817,341.827 5.242,345.917 6.839 C 346.833 7.197,348.146 7.676,348.833 7.904 C 349.521 8.131,351.058 8.666,352.250 9.092 C 360.692 12.108,361.946 12.606,366.583 14.786 C 367.958 15.433,370.208 16.317,371.583 16.750 C 375.048 17.842,379.330 19.997,386.250 24.129 C 390.686 26.779,393.527 28.733,394.217 29.609 L 394.583 30.075 394.704 46.827 C 394.771 56.041,394.771 67.768,394.704 72.887 L 394.583 82.194 394.070 82.653 C 393.746 82.942,393.128 83.219,392.403 83.400 C 390.560 83.861,388.957 85.089,388.202 86.617 C 387.538 87.962,386.765 91.780,386.966 92.726 C 388.034 97.766,389.063 99.473,391.924 100.954 C 392.661 101.336,393.386 101.783,393.533 101.949 C 394.461 102.988,394.720 108.769,394.072 113.982 C 393.942 115.027,393.755 117.464,393.657 119.399 C 393.432 123.818,393.411 123.948,392.834 124.525 L 392.359 125.000 370.471 124.999 C 344.505 124.997,346.202 125.110,345.906 123.356 C 345.034 118.187,342.078 115.249,336.000 113.510 C 331.544 112.235,325.242 112.191,321.360 113.408 C 320.322 113.734,319.378 114.000,319.261 114.000 C 318.830 114.000,315.266 115.866,314.348 116.572 C 312.437 118.042,311.107 120.287,310.820 122.527 C 310.547 124.651,310.495 124.827,309.960 125.436 C 309.105 126.410,309.275 126.392,299.917 126.509 C 295.150 126.569,284.233 126.715,275.656 126.833 C 257.709 127.081,259.393 127.223,258.500 125.379 C 256.916 122.109,253.963 120.893,249.862 121.821 C 246.766 122.522,245.112 123.851,244.649 126.009 C 244.540 126.518,244.275 127.080,243.996 127.392 L 243.528 127.917 238.389 127.948 C 235.562 127.966,228.072 128.070,221.744 128.179 C 207.607 128.424,208.810 128.741,208.487 124.683 C 207.939 117.801,207.753 118.238,211.625 117.323 C 216.144 116.255,217.727 115.212,219.158 112.362 C 220.549 109.592,220.625 103.660,219.313 100.291 C 218.528 98.275,216.209 95.576,214.748 94.978 C 211.833 93.783,210.559 93.428,208.821 93.326 C 205.900 93.153,205.945 93.314,205.737 82.333 L 205.625 76.417 206.055 76.019 C 206.416 75.687,206.752 75.598,208.118 75.472 C 213.334 74.994,215.503 72.558,215.498 67.186 C 215.495 62.980,211.285 58.535,207.265 58.491 C 206.056 58.477,205.324 58.177,204.876 57.509 L 204.490 56.935 204.536 50.064 L 204.583 43.193 204.979 42.772 C 205.635 42.074,207.167 42.052,207.167 42.740 C 207.167 43.369,209.133 43.495,213.750 43.163 C 219.991 42.713,219.596 42.285,213.008 42.359 C 205.850 42.439,205.742 41.946,212.333 39.273 C 213.112 38.956,214.237 38.501,214.833 38.259 C 215.429 38.018,216.404 37.601,217.000 37.333 C 217.596 37.065,218.571 36.648,219.167 36.406 C 219.762 36.164,220.700 35.784,221.250 35.561 C 221.800 35.338,222.588 34.997,223.000 34.804 C 223.412 34.610,224.463 34.171,225.333 33.826 C 226.838 33.232,227.633 32.900,231.917 31.080 C 232.925 30.651,234.350 30.051,235.083 29.746 C 235.817 29.441,237.242 28.843,238.250 28.418 C 239.258 27.992,240.646 27.409,241.333 27.121 C 243.018 26.416,243.830 26.417,244.917 27.128 C 248.289 29.333,250.299 29.729,255.691 29.254 C 258.847 28.975,258.930 28.949,262.667 27.071 C 265.538 25.628,266.654 24.701,267.574 22.993 C 269.350 19.696,270.068 18.957,271.796 18.652 C 272.321 18.559,273.537 18.228,274.500 17.916 C 275.462 17.604,276.732 17.265,277.322 17.162 C 277.911 17.059,278.873 16.794,279.458 16.574 C 280.044 16.353,281.203 16.055,282.033 15.911 C 282.864 15.767,284.115 15.465,284.813 15.240 C 285.512 15.015,286.796 14.722,287.667 14.588 C 288.537 14.453,289.813 14.151,290.500 13.917 C 291.188 13.682,292.438 13.378,293.279 13.242 C 294.120 13.106,295.545 12.768,296.446 12.491 C 297.346 12.214,298.608 11.914,299.250 11.824 C 299.892 11.734,301.144 11.436,302.034 11.161 C 302.924 10.887,304.274 10.553,305.034 10.420 C 305.794 10.286,306.979 9.985,307.667 9.750 C 308.354 9.515,309.629 9.209,310.500 9.069 C 311.371 8.930,312.771 8.630,313.611 8.402 C 314.451 8.175,316.134 7.843,317.351 7.664 C 318.568 7.486,320.205 7.154,320.990 6.928 C 321.775 6.702,323.129 6.399,324.000 6.255 C 324.871 6.111,326.221 5.810,327.000 5.588 C 327.779 5.365,329.299 5.028,330.377 4.840 C 331.455 4.651,332.955 4.309,333.710 4.081 C 335.407 3.566,336.229 3.605,338.833 4.322 M332.583 10.359 C 330.394 10.603,330.223 10.724,331.588 11.063 C 335.107 11.936,336.000 12.411,336.000 13.407 C 336.000 15.446,331.827 16.507,328.420 15.334 C 327.106 14.883,326.938 14.902,325.836 15.638 C 322.907 17.594,317.707 17.576,316.416 15.605 C 315.149 13.672,319.806 11.902,323.500 12.912 C 325.085 13.345,326.167 13.178,326.167 12.500 C 326.167 12.002,325.757 11.880,323.076 11.578 C 316.725 10.863,313.749 11.505,311.388 14.099 C 309.910 15.723,309.803 15.752,307.568 15.138 C 305.773 14.645,299.244 14.586,297.500 15.047 C 293.350 16.145,292.061 16.702,291.268 17.742 C 289.830 19.627,290.170 20.515,292.897 21.989 C 295.964 23.647,298.364 23.941,303.883 23.332 C 309.273 22.737,310.601 22.302,312.640 20.458 C 313.832 19.381,314.334 19.268,315.687 19.771 C 316.620 20.118,321.483 20.278,323.505 20.029 C 325.196 19.821,326.008 19.563,328.333 18.494 L 330.083 17.690 332.417 17.583 C 336.919 17.376,338.315 16.684,339.028 14.306 C 339.648 12.236,336.826 9.887,334.083 10.192 C 333.992 10.202,333.317 10.277,332.583 10.359 M355.721 16.175 C 354.192 16.640,352.333 18.386,352.333 19.358 C 352.333 20.357,354.942 22.503,356.151 22.497 C 357.064 22.494,357.166 22.359,357.122 21.214 C 357.047 19.244,358.150 18.642,362.083 18.508 C 365.401 18.394,365.754 17.578,363.012 16.361 C 362.310 16.049,356.613 15.904,355.721 16.175 M305.747 16.752 C 309.673 17.584,310.825 18.872,309.170 20.580 C 307.528 22.274,298.453 22.140,296.816 20.399 C 294.633 18.074,300.561 15.654,305.747 16.752 M308.333 29.440 C 300.803 29.947,297.290 31.184,294.179 34.424 C 292.185 36.501,291.964 37.277,292.769 39.382 C 293.795 42.069,295.198 42.976,300.679 44.499 C 309.172 46.859,318.687 43.681,321.958 37.394 C 322.334 36.673,322.840 35.895,323.083 35.666 L 323.526 35.250 328.055 35.139 C 332.230 35.037,333.758 34.935,337.679 34.497 C 340.987 34.127,343.963 33.973,350.417 33.839 C 355.436 33.734,358.511 33.582,362.000 33.267 C 364.613 33.031,367.613 32.763,368.667 32.671 C 369.721 32.580,373.171 32.470,376.333 32.429 C 380.535 32.373,382.936 32.261,385.250 32.012 C 386.992 31.824,388.510 31.670,388.625 31.669 C 388.740 31.668,388.833 31.592,388.833 31.500 C 388.833 31.046,376.581 31.393,371.583 31.990 C 368.287 32.383,366.520 32.471,358.000 32.666 C 351.840 32.808,348.196 33.045,345.104 33.506 C 343.568 33.734,333.835 34.160,330.059 34.164 C 328.396 34.165,326.277 34.244,325.350 34.340 C 323.206 34.560,322.603 34.408,321.439 33.353 C 318.654 30.832,312.952 29.129,308.333 29.440 M318.085 32.422 C 322.640 34.593,321.063 38.575,314.088 42.512 C 310.082 44.773,302.342 44.823,298.087 42.616 C 294.355 40.679,293.088 38.114,296.291 38.978 C 298.388 39.544,302.693 39.857,305.542 39.650 C 311.664 39.207,314.263 37.524,314.891 33.597 C 315.252 31.345,315.576 31.226,318.085 32.422 M240.833 36.929 C 240.604 36.968,239.854 37.083,239.167 37.184 C 236.394 37.589,234.283 38.500,232.548 40.041 C 231.465 41.003,231.235 41.069,227.417 41.533 L 224.250 41.917 227.928 42.000 L 231.607 42.083 232.762 42.687 C 236.921 44.861,244.705 45.838,241.443 43.776 C 238.520 41.928,238.575 40.650,241.660 38.823 C 244.853 36.931,252.000 38.410,252.000 40.962 C 252.000 41.327,251.775 41.964,251.417 42.617 C 250.688 43.943,250.681 43.900,251.612 43.772 C 252.614 43.635,253.606 43.047,254.304 42.178 C 255.363 40.860,255.879 40.645,258.372 40.477 C 259.588 40.396,261.596 40.184,262.833 40.007 C 264.440 39.778,266.893 39.634,271.417 39.505 C 282.480 39.190,289.495 38.727,289.938 38.284 C 290.792 37.430,278.188 37.877,268.583 39.041 C 264.604 39.523,263.845 39.566,259.287 39.561 L 254.324 39.556 253.141 38.938 C 250.226 37.415,243.937 36.389,240.833 36.929 M378.833 37.806 C 373.239 39.659,372.234 46.497,377.066 49.822 C 379.117 51.233,379.950 50.738,378.958 48.698 C 376.915 44.493,380.190 40.284,384.945 41.004 C 386.428 41.229,386.659 41.119,386.335 40.338 C 385.467 38.242,381.530 36.913,378.833 37.806 M317.634 48.568 C 312.954 50.219,312.427 51.461,315.667 53.205 C 318.084 54.505,318.403 54.551,319.939 53.810 C 322.057 52.789,324.257 52.970,326.434 54.344 C 328.445 55.614,328.974 54.992,327.714 52.841 C 325.540 49.133,321.221 47.302,317.634 48.568 M263.378 50.342 C 261.324 50.748,258.500 52.886,258.500 54.036 C 258.500 54.556,258.695 54.781,259.999 55.765 C 260.594 56.214,261.440 56.901,261.879 57.291 C 262.988 58.276,263.278 58.235,264.581 56.913 C 267.249 54.205,270.225 54.116,273.112 56.657 C 275.435 58.702,275.094 54.789,272.743 52.427 C 270.867 50.543,266.871 49.653,263.378 50.342 M354.167 57.500 C 349.881 58.084,346.628 60.229,345.835 62.996 C 345.456 64.315,346.064 64.301,347.951 62.949 C 352.071 59.996,353.259 59.625,357.409 59.996 C 364.163 60.601,369.529 68.068,367.986 74.716 C 367.646 76.179,368.555 76.922,369.353 75.833 C 370.080 74.841,370.244 67.607,369.586 65.511 C 368.504 62.061,366.827 59.674,364.750 58.628 C 362.687 57.588,357.544 57.040,354.167 57.500 M40.170 59.214 C 39.301 59.654,39.333 58.781,39.376 80.704 L 39.417 101.157 39.779 101.520 C 40.528 102.269,43.740 102.100,44.205 101.286 C 44.368 101.003,44.436 98.396,44.500 90.083 C 44.595 77.772,44.442 78.903,46.167 77.758 C 51.408 74.280,57.148 74.370,58.979 77.959 C 59.808 79.584,59.869 80.406,59.954 91.051 L 60.033 101.019 60.403 101.449 C 61.087 102.246,64.395 102.152,64.838 101.324 C 65.230 100.592,64.961 79.111,64.541 77.617 C 62.419 70.060,54.767 68.121,46.593 73.067 C 44.522 74.321,44.600 74.556,44.494 66.715 C 44.400 59.701,44.392 59.625,43.655 59.244 C 43.067 58.940,40.751 58.920,40.170 59.214 M311.375 59.274 C 309.976 59.861,313.773 64.663,315.987 65.106 C 316.772 65.263,316.776 64.865,316.005 63.220 C 314.939 60.946,312.448 58.823,311.375 59.274 M211.850 62.878 C 215.287 65.170,214.803 71.235,211.046 72.955 C 209.495 73.665,209.356 73.283,210.370 71.099 C 211.184 69.346,211.400 67.053,211.003 64.374 C 210.714 62.429,210.841 62.205,211.850 62.878 M337.251 67.792 C 336.643 69.303,336.891 72.911,337.809 75.899 C 339.931 82.806,345.362 86.790,353.101 87.116 C 357.974 87.322,364.905 84.708,363.184 83.314 C 362.609 82.848,362.090 82.917,359.250 83.833 C 355.697 84.980,354.722 84.989,351.803 83.903 C 348.418 82.644,347.079 81.608,345.248 78.830 C 344.574 77.807,343.705 76.774,342.883 76.015 C 340.415 73.737,339.426 72.252,338.409 69.292 C 337.814 67.560,337.506 67.161,337.251 67.792 M286.562 70.066 C 285.530 70.530,284.942 73.584,284.926 78.555 L 284.917 81.693 285.461 82.180 C 286.896 83.464,288.786 82.488,287.767 80.989 C 285.819 78.123,288.917 74.411,291.712 76.260 C 293.223 77.260,293.763 77.089,293.729 75.618 C 293.656 72.463,289.093 68.928,286.562 70.066 M85.708 70.499 C 78.241 71.554,73.677 76.942,73.074 85.417 C 72.140 98.518,82.843 105.736,96.750 101.382 C 99.952 100.379,100.335 99.980,100.331 97.641 C 100.326 95.153,99.871 94.893,97.555 96.055 C 90.065 99.817,82.205 98.417,79.462 92.833 C 78.306 90.482,78.008 88.197,78.763 87.487 L 79.193 87.083 89.674 87.000 C 99.128 86.925,100.182 86.890,100.430 86.641 C 101.375 85.696,100.775 79.808,99.443 76.950 C 97.209 72.156,91.837 69.634,85.708 70.499 M119.542 70.499 C 112.038 71.559,107.459 76.998,106.913 85.500 C 106.045 99.002,117.475 106.150,131.697 101.000 C 133.891 100.206,134.169 99.805,134.164 97.438 C 134.160 95.198,133.643 94.922,131.486 96.007 C 122.770 100.389,114.172 97.904,112.426 90.497 C 111.560 86.821,110.983 87.000,123.699 87.000 L 133.848 87.000 134.279 86.569 L 134.710 86.139 134.619 83.528 C 134.298 74.307,128.438 69.243,119.542 70.499 M182.583 70.510 C 175.315 71.491,170.582 77.135,170.082 85.417 C 169.319 98.032,178.870 105.177,192.045 101.850 C 196.670 100.682,197.333 100.166,197.333 97.733 C 197.334 95.028,197.010 94.860,194.306 96.162 C 184.969 100.658,175.333 96.896,175.333 88.757 C 175.333 86.927,174.858 87.000,186.836 87.000 C 199.261 87.000,198.154 87.401,197.829 83.022 C 197.161 74.004,191.445 69.313,182.583 70.510 M20.250 70.652 C 11.119 71.839,5.859 80.834,8.158 91.330 C 10.188 100.599,18.872 104.849,28.917 101.488 C 32.267 100.366,32.496 100.123,32.526 97.657 C 32.561 94.814,32.364 94.700,29.786 96.074 C 21.455 100.514,14.358 97.715,13.159 89.514 C 11.372 77.298,20.169 71.063,30.351 77.329 C 31.853 78.252,32.305 78.161,32.514 76.892 C 32.783 75.257,32.518 73.482,31.921 72.917 C 30.298 71.381,24.017 70.163,20.250 70.652 M149.854 70.753 C 143.354 71.930,139.632 76.746,141.083 82.104 C 142.070 85.750,144.567 87.303,151.917 88.841 C 158.018 90.117,159.343 91.028,159.330 93.936 C 159.307 98.923,149.860 99.915,142.847 95.667 C 141.010 94.554,140.667 94.852,140.667 97.561 C 140.667 100.145,140.877 100.394,143.917 101.392 C 154.688 104.930,164.503 100.933,164.525 93.000 C 164.538 88.202,161.846 85.819,154.833 84.422 C 147.757 83.012,146.034 81.969,146.009 79.083 C 145.971 74.626,153.535 73.368,160.480 76.676 C 163.141 77.944,163.333 77.848,163.333 75.246 C 163.333 74.294,163.250 73.332,163.147 73.107 C 162.355 71.367,154.319 69.944,149.854 70.753 M234.145 73.719 C 231.894 74.142,231.895 74.737,234.146 76.082 C 239.875 79.503,239.588 86.882,233.598 90.169 C 231.973 91.061,231.571 92.045,232.326 93.283 C 233.234 94.772,237.777 94.503,241.144 92.761 C 243.786 91.395,245.833 87.498,245.833 83.833 C 245.833 77.351,240.297 72.560,234.145 73.719 M90.840 74.987 C 93.394 75.779,94.979 77.559,95.607 80.339 C 96.265 83.250,96.516 83.167,87.031 83.167 C 78.048 83.167,78.378 83.229,78.550 81.559 C 79.056 76.659,85.359 73.289,90.840 74.987 M124.674 74.987 C 127.286 75.797,129.000 77.805,129.509 80.650 C 129.970 83.232,130.196 83.167,120.848 83.167 C 111.898 83.167,112.212 83.225,112.382 81.580 C 112.889 76.669,119.191 73.289,124.674 74.987 M186.500 74.653 C 189.985 75.228,192.298 77.600,192.776 81.087 C 193.062 83.175,193.096 83.167,184.015 83.167 C 175.050 83.167,175.378 83.229,175.550 81.559 C 176.007 77.137,181.304 73.796,186.500 74.653 M314.315 85.489 C 307.564 86.420,303.161 91.108,303.097 97.432 C 303.073 99.800,303.625 99.856,304.978 97.625 C 306.584 94.978,308.008 93.889,311.000 93.023 C 313.796 92.213,314.899 92.079,316.145 92.398 C 317.496 92.744,317.699 92.737,318.225 92.324 C 319.145 91.600,320.663 87.618,320.342 86.772 C 319.983 85.829,316.786 85.148,314.315 85.489 M326.382 93.542 C 326.295 93.656,325.685 94.658,325.028 95.767 C 323.729 97.961,323.673 98.200,324.083 99.777 C 324.646 101.938,324.373 104.296,323.271 106.777 C 322.523 108.462,322.500 108.743,323.125 108.593 C 324.512 108.262,326.439 106.002,327.540 103.417 L 328.250 101.750 328.303 99.132 C 328.386 95.038,327.409 92.195,326.382 93.542 M214.104 96.271 C 216.728 97.516,219.448 103.225,219.098 106.750 C 218.639 111.370,215.378 115.667,212.331 115.667 C 210.943 115.667,211.155 114.483,213.268 110.432 C 214.725 107.639,214.455 101.446,212.736 98.190 C 211.535 95.915,211.995 95.270,214.104 96.271 M254.085 96.763 C 253.270 97.643,253.792 97.998,254.850 97.285 C 255.538 96.822,255.584 96.436,254.960 96.364 C 254.635 96.327,254.384 96.441,254.085 96.763 M295.333 97.979 C 295.037 98.064,294.917 98.214,294.917 98.502 C 294.917 99.494,300.155 101.068,300.814 100.274 C 301.567 99.366,297.067 97.482,295.333 97.979 M374.638 102.239 C 374.241 102.554,373.263 103.269,372.464 103.828 C 370.242 105.382,370.020 106.037,371.042 108.027 C 371.834 109.568,372.480 109.868,374.860 109.801 C 377.054 109.738,377.550 109.427,378.557 107.486 C 380.135 104.442,377.056 100.319,374.638 102.239 M286.526 103.055 C 285.776 103.854,285.414 107.782,285.839 110.500 C 286.339 113.697,288.726 116.118,292.658 117.416 C 294.990 118.185,300.053 117.040,301.474 115.421 C 302.358 114.414,302.035 114.000,300.363 113.999 C 297.482 113.997,294.970 111.389,294.260 107.664 C 293.977 106.179,293.943 106.142,291.842 105.086 C 290.875 104.600,289.524 103.857,288.841 103.434 C 287.435 102.565,287.046 102.502,286.526 103.055 M366.417 113.466 C 362.229 115.493,363.276 120.987,367.970 121.617 C 369.236 121.787,371.386 120.363,372.084 118.892 C 373.651 115.590,369.747 111.853,366.417 113.466 M331.608 114.514 C 332.695 114.705,334.401 115.003,335.400 115.176 L 337.218 115.491 339.362 116.936 C 344.414 120.341,345.270 123.209,340.705 121.435 C 336.355 119.744,326.487 119.177,320.917 120.298 C 319.450 120.594,318.050 120.869,317.806 120.911 C 317.562 120.952,316.672 121.256,315.828 121.585 C 313.111 122.647,312.574 121.996,314.182 119.592 C 316.901 115.527,324.604 113.283,331.608 114.514 " stroke="none" fill="#1d1918" fill-rule="evenodd"></path><path id="path2" d="M0.000 66.667 L 0.000 133.333 200.000 133.333 L 400.000 133.333 400.000 66.667 L 400.000 0.000 200.000 0.000 L 0.000 0.000 0.000 66.667 M337.917 2.275 C 339.439 2.935,340.633 3.308,345.583 4.669 C 347.139 5.096,349.553 5.951,353.333 7.413 C 354.204 7.749,355.629 8.285,356.500 8.602 C 357.371 8.919,358.608 9.393,359.250 9.656 C 360.456 10.150,362.646 11.037,365.250 12.088 C 370.648 14.265,372.074 14.859,372.250 15.001 C 372.342 15.076,372.754 15.264,373.167 15.420 C 373.579 15.576,374.554 15.990,375.333 16.339 C 376.113 16.689,377.613 17.360,378.667 17.830 C 387.641 21.831,394.706 26.393,396.253 29.186 L 396.750 30.083 396.740 53.000 C 396.730 78.041,396.612 83.379,396.054 84.130 C 395.711 84.593,394.966 84.849,393.291 85.079 C 391.068 85.383,389.094 88.459,388.877 91.955 C 388.676 95.187,390.483 97.969,394.000 99.843 C 396.170 100.999,396.178 101.024,396.176 106.350 C 396.175 108.678,396.096 111.033,395.999 111.583 C 395.903 112.133,395.716 113.746,395.584 115.167 C 395.452 116.587,395.269 118.500,395.177 119.417 C 395.084 120.333,395.007 122.036,395.004 123.200 C 395.000 125.419,394.879 125.945,394.280 126.342 C 393.823 126.646,346.356 126.796,344.917 126.499 C 344.258 126.363,343.874 126.132,343.083 125.399 C 340.774 123.258,339.572 122.666,336.368 122.091 C 331.592 121.234,324.542 121.143,321.907 121.903 C 321.454 122.034,320.525 122.225,319.842 122.327 C 318.603 122.513,315.957 123.478,314.457 124.291 C 313.690 124.707,312.579 125.787,311.622 127.048 C 310.937 127.951,310.967 127.949,297.667 128.157 C 290.929 128.263,283.429 128.455,281.000 128.583 C 278.571 128.712,274.408 128.859,271.750 128.910 C 269.092 128.961,263.392 129.077,259.083 129.168 C 254.775 129.259,245.550 129.409,238.583 129.502 C 231.617 129.594,222.005 129.755,217.224 129.859 C 206.607 130.091,207.038 130.204,207.008 127.167 C 207.003 126.571,206.883 125.333,206.743 124.417 C 206.603 123.500,206.442 121.500,206.386 119.973 L 206.282 117.196 208.287 115.223 C 210.478 113.066,211.928 110.662,212.331 108.519 C 212.584 107.176,212.546 102.373,212.276 101.476 C 211.537 99.021,207.460 95.009,205.696 95.002 C 204.407 94.996,204.167 93.663,204.167 86.515 C 204.166 84.903,204.094 82.796,204.005 81.833 C 203.440 75.716,203.675 74.201,205.262 73.739 C 207.740 73.019,209.912 68.883,209.342 65.970 C 208.572 62.030,207.735 60.736,205.558 60.114 C 202.757 59.314,202.934 59.960,202.873 50.333 C 202.817 41.466,202.800 41.606,204.000 40.982 C 204.850 40.540,207.515 39.385,208.000 39.249 C 208.229 39.184,208.904 38.888,209.500 38.590 C 210.096 38.292,210.996 37.915,211.500 37.751 C 212.004 37.588,212.792 37.266,213.250 37.036 C 214.099 36.611,215.751 35.897,217.250 35.308 C 217.708 35.128,218.646 34.727,219.333 34.416 C 220.021 34.105,221.071 33.652,221.667 33.408 C 223.090 32.827,225.280 31.900,227.750 30.832 C 228.850 30.357,230.291 29.753,230.953 29.490 C 231.614 29.228,232.456 28.859,232.823 28.672 C 233.191 28.484,233.962 28.154,234.537 27.937 C 235.596 27.539,239.679 25.799,242.035 24.743 C 243.919 23.898,244.256 23.943,245.622 25.225 C 247.858 27.324,251.564 28.240,254.800 27.493 C 255.193 27.402,256.315 27.224,257.292 27.097 C 261.451 26.555,266.041 23.233,267.432 19.759 C 267.925 18.527,268.599 17.838,269.691 17.450 C 271.360 16.856,275.000 15.854,276.092 15.687 C 276.738 15.589,277.983 15.287,278.859 15.018 C 279.734 14.748,280.818 14.476,281.267 14.412 C 281.716 14.348,282.983 14.011,284.083 13.662 C 287.969 12.428,290.100 11.840,291.596 11.588 C 292.428 11.448,293.735 11.146,294.500 10.917 C 295.265 10.688,296.552 10.385,297.360 10.245 C 298.168 10.105,299.484 9.801,300.285 9.568 C 301.086 9.336,302.644 8.967,303.746 8.747 C 304.848 8.528,306.072 8.235,306.465 8.096 C 306.858 7.957,308.020 7.687,309.048 7.495 C 310.076 7.303,311.479 6.971,312.167 6.756 C 312.854 6.542,314.323 6.213,315.431 6.025 C 316.538 5.837,318.001 5.528,318.681 5.338 C 319.360 5.147,320.779 4.847,321.833 4.669 C 322.887 4.492,324.619 4.124,325.681 3.851 C 326.743 3.579,328.093 3.305,328.681 3.243 C 329.269 3.181,330.725 2.882,331.917 2.580 C 335.523 1.665,336.407 1.620,337.917 2.275 M299.250 50.665 C 288.383 51.973,280.199 60.034,277.920 71.671 C 275.394 84.575,279.469 96.825,288.134 102.376 C 296.148 107.510,303.538 108.658,311.508 106.007 C 318.736 103.604,321.722 100.915,326.054 92.911 C 331.950 82.017,329.386 64.868,320.683 56.979 C 318.577 55.071,312.151 51.749,309.250 51.069 C 307.230 50.595,301.686 50.371,299.250 50.665 M354.667 50.762 C 354.438 50.802,353.691 50.917,353.009 51.018 C 342.527 52.568,336.792 59.717,338.851 68.667 C 339.974 73.547,344.004 77.345,350.270 79.426 C 352.739 80.246,359.897 82.030,361.917 82.329 C 364.039 82.644,368.422 84.695,369.976 86.101 C 372.608 88.484,373.129 92.615,371.176 95.630 C 368.349 99.995,360.922 101.874,353.500 100.103 C 347.987 98.787,344.758 95.814,343.423 90.823 C 342.731 88.237,342.670 88.200,339.500 88.475 C 336.306 88.752,335.988 89.015,336.314 91.112 C 337.938 101.543,345.930 107.246,358.917 107.239 C 365.898 107.236,369.796 105.790,374.750 101.366 C 382.897 94.089,379.623 80.196,369.083 77.323 C 368.350 77.123,367.388 76.777,366.945 76.554 C 365.805 75.978,364.780 75.685,358.649 74.177 C 348.168 71.600,346.021 70.331,345.170 66.208 C 343.884 59.981,350.925 55.776,360.599 56.993 C 365.785 57.646,368.808 60.047,370.260 64.667 C 371.197 67.648,371.099 67.581,374.167 67.333 C 377.711 67.047,378.079 66.534,377.160 63.163 C 375.039 55.384,368.207 50.957,358.000 50.749 C 356.396 50.716,354.896 50.722,354.667 50.762 M225.065 52.391 L 224.583 52.804 224.583 79.333 L 224.583 105.862 225.062 106.274 L 225.540 106.685 237.062 106.623 C 252.650 106.540,254.011 106.291,259.708 102.488 C 271.763 94.439,273.126 67.925,261.990 58.088 C 258.561 55.058,256.395 53.729,253.736 53.023 C 250.461 52.153,250.047 52.129,237.398 52.050 L 225.546 51.977 225.065 52.391 M307.000 57.085 C 312.100 58.223,314.361 59.513,316.777 62.667 C 321.294 68.561,322.774 77.202,320.995 87.306 C 319.972 93.121,313.796 99.212,307.545 100.573 C 300.162 102.181,295.789 101.050,290.922 96.272 C 287.344 92.759,286.156 90.383,284.907 84.244 L 284.298 81.250 284.392 78.000 C 284.655 68.883,287.879 62.553,294.038 59.060 C 297.728 56.967,302.924 56.175,307.000 57.085 M43.534 58.673 C 44.852 59.039,44.831 58.926,44.850 65.897 C 44.871 73.739,44.838 73.629,46.826 72.421 C 53.769 68.204,61.271 69.413,64.066 75.199 C 65.413 77.988,65.417 78.026,65.417 90.537 L 65.417 101.491 65.037 101.870 C 64.593 102.315,61.384 102.533,60.525 102.177 C 59.558 101.777,59.591 102.131,59.491 91.083 C 59.388 79.876,59.344 79.371,58.326 77.766 C 56.549 74.964,51.666 74.953,47.044 77.741 C 44.687 79.163,44.930 77.761,44.833 90.508 L 44.750 101.491 44.371 101.870 C 44.026 102.216,43.811 102.255,41.997 102.306 L 40.002 102.361 39.524 101.883 C 38.848 101.207,38.858 101.552,38.889 79.417 C 38.920 57.654,38.843 59.033,40.044 58.686 C 40.784 58.472,42.784 58.465,43.534 58.673 M247.206 58.667 C 253.597 59.197,257.492 61.801,260.009 67.226 C 262.983 73.634,262.605 86.321,259.252 92.623 C 255.788 99.135,253.049 100.158,239.050 100.164 C 232.851 100.167,232.430 100.126,232.034 99.492 C 231.810 99.133,231.576 95.087,231.612 92.167 C 231.637 90.132,231.665 76.438,231.648 74.750 C 231.624 72.335,231.854 59.713,231.929 59.365 C 232.099 58.573,232.600 58.513,239.167 58.509 C 242.512 58.507,246.130 58.578,247.206 58.667 M91.500 70.275 C 97.813 71.547,101.333 76.685,101.333 84.629 C 101.333 87.694,102.118 87.499,89.767 87.502 C 82.049 87.504,79.654 87.553,79.333 87.715 C 78.719 88.024,78.681 89.305,79.235 91.081 C 81.304 97.718,88.936 99.638,97.369 95.644 C 100.451 94.184,100.745 94.338,100.748 97.417 C 100.751 100.334,100.496 100.633,97.083 101.717 C 90.405 103.839,83.482 103.323,79.026 100.370 C 69.765 94.234,70.557 77.131,80.349 71.767 C 82.183 70.762,83.609 70.353,86.750 69.932 C 87.583 69.821,90.172 70.007,91.500 70.275 M123.583 70.005 C 130.856 70.826,134.738 75.372,135.105 83.496 C 135.302 87.865,136.356 87.500,123.542 87.500 C 111.351 87.500,112.077 87.289,112.920 90.590 C 114.704 97.577,122.503 99.726,131.211 95.632 C 134.281 94.188,134.569 94.341,134.578 97.417 C 134.586 100.333,134.331 100.632,130.917 101.717 C 124.285 103.825,117.293 103.314,112.906 100.402 C 109.085 97.866,106.901 93.820,106.531 88.593 C 105.775 77.905,111.121 70.852,120.667 69.942 C 121.820 69.832,122.105 69.839,123.583 70.005 M188.500 70.279 C 194.526 71.474,197.988 76.164,198.285 83.530 C 198.459 87.861,199.512 87.500,186.690 87.500 C 174.312 87.500,175.024 87.254,176.240 91.104 C 178.357 97.804,186.364 99.705,194.714 95.490 C 197.390 94.139,197.667 94.320,197.667 97.425 C 197.667 100.458,197.536 100.615,194.083 101.716 C 186.962 103.985,179.697 103.236,175.187 99.766 C 171.367 96.826,169.773 93.003,169.761 86.750 C 169.742 76.729,174.617 70.904,183.833 69.937 C 184.778 69.837,187.154 70.012,188.500 70.279 M26.341 70.399 C 27.993 70.717,30.551 71.560,31.583 72.126 C 32.791 72.789,32.999 73.305,33.000 75.633 C 33.000 78.821,32.545 79.126,29.988 77.650 C 20.227 72.017,12.402 77.089,13.489 88.343 C 14.087 94.540,17.129 97.667,22.561 97.667 C 25.374 97.667,26.524 97.285,31.218 94.792 C 32.540 94.091,33.000 94.782,33.000 97.469 C 32.999 100.223,32.744 100.560,29.833 101.653 C 19.760 105.435,10.295 101.389,7.931 92.290 C 4.380 78.624,13.395 67.905,26.341 70.399 M155.917 70.184 C 157.921 70.428,160.966 71.208,162.240 71.804 C 163.635 72.457,163.833 72.884,163.833 75.242 C 163.833 78.274,163.357 78.585,160.715 77.272 C 153.710 73.790,146.211 74.896,146.534 79.363 C 146.710 81.793,147.992 82.533,154.301 83.844 C 163.039 85.659,166.296 89.218,164.745 95.257 C 163.142 101.499,154.576 104.693,145.667 102.370 C 140.635 101.058,140.121 100.574,140.202 97.225 C 140.271 94.313,140.762 93.904,142.750 95.105 C 149.735 99.324,158.833 98.637,158.833 93.891 C 158.833 91.258,157.779 90.552,152.000 89.316 C 143.364 87.469,140.725 85.466,140.382 80.500 C 139.908 73.620,146.761 69.069,155.917 70.184 M85.127 75.250 C 82.509 75.911,80.324 77.820,79.346 80.301 C 78.381 82.750,78.110 82.667,87.058 82.667 C 95.857 82.667,95.434 82.743,95.288 81.184 C 94.860 76.633,90.270 73.952,85.127 75.250 M118.939 75.255 C 115.906 76.019,112.833 79.241,112.833 81.658 C 112.833 82.695,112.603 82.667,120.929 82.667 C 129.721 82.667,129.292 82.748,129.119 81.104 C 128.646 76.596,124.065 73.964,118.939 75.255 M182.127 75.250 C 178.988 76.042,176.000 79.212,176.000 81.750 C 176.000 82.670,175.974 82.667,184.156 82.667 C 192.879 82.667,192.458 82.747,192.286 81.104 C 191.814 76.605,187.228 73.962,182.127 75.250 " stroke="none" fill="#fbfbfb" fill-rule="evenodd"></path></g></svg>